# xmcd
# Track frame offsets:
# 150
# 21054
# 38505
# 76066
# 89782
# 120319
# 139534
# 159229
# 179986
# 204005
# 238889
#
# Disc length: 3756 seconds
# Revision: 0
# Processed by: cddbd v1.5.2PL0 Copyright (c) Steve Scherf et al.
# Submitted via: VisiTrax 2.10.0.248 - For more info visit www.synapsa.com
#
DISCID=820eaa0b
DTITLE=Mitchhart, Stacy - Gotta Get The Feeling Back Again
DYEAR=2007
DGENRE=Blues
TTITLE0=Stacy Mitchhart - Gotta Get The Feeling Back Again
TTITLE1=Stacy Mitchhart - I Can't Get Enough Of Your Lovin'
TTITLE2=Stacy Mitchhart - Black Dog/Whole Lotta Love
TTITLE3=Stacy Mitchhart - Blow On 'Em Baby
TTITLE4=Stacy Mitchhart - The Blues Has Got You Bad
TTITLE5=Stacy Mitchhart - Better Off Without You
TTITLE6=Stacy Mitchhart - Givin' Me Reasons
TTITLE7=Stacy Mitchhart - Doghouse Blues
TTITLE8=Stacy Mitchhart - I'll Play The Blues For You
TTITLE9=Stacy Mitchhart - Whipping Post
TTITLE10=Stacy Mitchhart - Blue Monday (Live)
EXTD=
EXTT0=
EXTT1=
EXTT2=
EXTT3=
EXTT4=
EXTT5=
EXTT6=
EXTT7=
EXTT8=
EXTT9=
EXTT10=
PLAYORDER=
